<svg width="64" height="64" viewBox="0 0 64 64" fill="none" xmlns="http://www.w3.org/2000/svg">
<path fill-rule="evenodd" clip-rule="evenodd" d="M23.1749 23.5649L24.8253 22.4352L21.2997 17.2849L26.1666 18.4698L19.8455 8.46591L18.1547 9.53425L21.8335 15.3564L16.7004 14.1066L23.1749 23.5649Z" fill="black"/>
<path fill-rule="evenodd" clip-rule="evenodd" d="M44.1749 8.43506L45.8253 9.56478L42.2997 14.7151L47.1666 13.5302L40.8455 23.5341L39.1547 22.4658L42.8335 16.6436L37.7004 17.8934L44.1749 8.43506Z" fill="black"/>
<path fill-rule="evenodd" clip-rule="evenodd" d="M30.605 21.5024L32.6499 21.0024L31.5197 14.7886L35.4408 17.1533L33.8176 5.78198L31.7622 6.21779L32.7495 13.1341L28.6311 10.6504L30.605 21.5024Z" fill="black"/>
<path d="M47.8333 38.7036C47.8378 37.5876 47.5472 36.4903 46.9912 35.5227C46.4351 34.5551 45.6332 33.7516 44.6667 33.1936C44.6905 32.9197 44.6905 32.6442 44.6667 32.3703C44.6667 31.1105 44.1662 29.9023 43.2754 29.0115C42.3846 28.1207 41.1765 27.6203 39.9167 27.6203H39.6317C39.368 26.8893 38.929 26.2341 38.3532 25.7123C37.7774 25.1904 37.0823 24.8178 36.329 24.6271C35.5756 24.4365 34.787 24.4335 34.0323 24.6186C33.2775 24.8037 32.5797 25.1711 32 25.6886C31.4203 25.1711 30.7225 24.8037 29.9678 24.6186C29.213 24.4335 28.4244 24.4365 27.6711 24.6271C26.9177 24.8178 26.2226 25.1904 25.6468 25.7123C25.071 26.2341 24.632 26.8893 24.3683 27.6203H24.0833C22.8236 27.6203 21.6154 28.1207 20.7246 29.0115C19.8338 29.9023 19.3333 31.1105 19.3333 32.3703C19.3095 32.6442 19.3095 32.9197 19.3333 33.1936C18.4347 33.7015 17.6739 34.4214 17.1171 35.2905C16.5602 36.1597 16.2242 37.1517 16.1384 38.1804C16.0525 39.209 16.2194 40.2431 16.6245 41.1925C17.0296 42.1419 17.6605 42.9779 18.4625 43.6278C17.9436 44.5956 17.6853 45.6817 17.7129 46.7796C17.7405 47.8774 18.0531 48.9492 18.6199 49.8897C19.1868 50.8302 19.9885 51.6072 20.9463 52.1444C21.9042 52.6815 22.9852 52.9604 24.0833 52.9536H24.3683C24.632 53.6846 25.071 54.3398 25.6468 54.8616C26.2226 55.3835 26.9177 55.7561 27.6711 55.9467C28.4244 56.1374 29.213 56.1404 29.9678 55.9553C30.7225 55.7702 31.4203 55.4028 32 54.8853C32.5797 55.4028 33.2775 55.7702 34.0323 55.9553C34.787 56.1404 35.5756 56.1374 36.329 55.9467C37.0823 55.7561 37.7774 55.3835 38.3532 54.8616C38.929 54.3398 39.368 53.6846 39.6317 52.9536H39.9167C41.0081 52.9467 42.0793 52.6579 43.0262 52.1151C43.9731 51.5723 44.7637 50.794 45.3213 49.8557C45.8788 48.9174 46.1844 47.851 46.2085 46.7598C46.2325 45.6686 45.9741 44.5897 45.4583 43.6278C46.1969 43.0365 46.7935 42.2873 47.2045 41.4352C47.6155 40.583 47.8304 39.6497 47.8333 38.7036ZM30.4167 34.8244C30.0718 34.6272 29.7118 34.4578 29.34 34.3178C28.9411 34.1834 28.5051 34.213 28.128 34.4001C27.7509 34.5871 27.4636 34.9163 27.3292 35.3153C27.1948 35.7142 27.2244 36.1502 27.4115 36.5273C27.5985 36.9044 27.9278 37.1917 28.3267 37.3261C28.9362 37.5465 29.4634 37.9485 29.8371 38.478C30.2109 39.0074 30.4132 39.6389 30.4167 40.2869V42.7411C30.0718 42.5439 29.7118 42.3744 29.34 42.2344C28.9411 42.1001 28.5051 42.1297 28.128 42.3167C27.7509 42.5038 27.4636 42.833 27.3292 43.2319C27.1948 43.6309 27.2244 44.0668 27.4115 44.4439C27.5985 44.821 27.9278 45.1084 28.3267 45.2428C28.9362 45.4631 29.4634 45.8652 29.8371 46.3946C30.2109 46.9241 30.4132 47.5555 30.4167 48.2036V51.3703C30.4167 51.7902 30.2499 52.1929 29.9529 52.4899C29.656 52.7868 29.2533 52.9536 28.8333 52.9536C28.527 52.9516 28.2279 52.8608 27.9721 52.6922C27.7164 52.5236 27.515 52.2844 27.3925 52.0036C27.658 51.8478 27.912 51.6732 28.1525 51.4811C28.3126 51.348 28.4449 51.1847 28.5419 51.0005C28.6389 50.8163 28.6987 50.6148 28.7178 50.4075C28.7369 50.2002 28.715 49.9911 28.6533 49.7923C28.5917 49.5935 28.4914 49.4087 28.3583 49.2486C28.2253 49.0885 28.062 48.9562 27.8778 48.8592C27.6935 48.7622 27.492 48.7024 27.2847 48.6833C27.0774 48.6642 26.8684 48.6861 26.6695 48.7478C26.4707 48.8095 26.286 48.9097 26.1258 49.0428C25.5542 49.5241 24.8307 49.7877 24.0833 49.7869C23.2435 49.7869 22.438 49.4533 21.8442 48.8594C21.2503 48.2656 20.9167 47.4601 20.9167 46.6203C20.9243 46.0243 21.0999 45.4426 21.4233 44.9419C21.7787 45.0057 22.139 45.0375 22.5 45.0369C22.9199 45.0369 23.3227 44.8701 23.6196 44.5732C23.9165 44.2763 24.0833 43.8735 24.0833 43.4536C24.0833 43.0337 23.9165 42.631 23.6196 42.334C23.3227 42.0371 22.9199 41.8703 22.5 41.8703C22.126 41.8724 21.7551 41.8025 21.4075 41.6644C20.8381 41.4591 20.3394 41.0948 19.9706 40.6147C19.6018 40.1346 19.3784 39.5589 19.3267 38.9558C19.2751 38.3526 19.3974 37.7473 19.6792 37.2115C19.961 36.6758 20.3904 36.232 20.9167 35.9328C21.1417 36.1398 21.3855 36.3253 21.645 36.4869C22.0104 36.6969 22.4441 36.7531 22.8509 36.6433C23.2577 36.5334 23.6042 36.2664 23.8142 35.9011C24.0241 35.5358 24.0804 35.102 23.9705 34.6952C23.8606 34.2884 23.5937 33.9419 23.2283 33.7319C23.0055 33.609 22.8196 33.4286 22.69 33.2094C22.5436 32.9552 22.4774 32.6627 22.5 32.3703C22.5 31.9503 22.6668 31.5476 22.9638 31.2507C23.2607 30.9538 23.6634 30.7869 24.0833 30.7869C24.1936 30.7716 24.3055 30.7716 24.4158 30.7869C24.4997 31.0413 24.6002 31.2899 24.7167 31.5311C24.8201 31.7125 24.9584 31.8717 25.1236 31.9995C25.2889 32.1272 25.4777 32.221 25.6793 32.2755C25.881 32.3299 26.0914 32.3439 26.2984 32.3167C26.5055 32.2895 26.7051 32.2216 26.8858 32.1169C27.2369 31.9057 27.4924 31.5667 27.5987 31.171C27.705 30.7754 27.6538 30.354 27.4558 29.9953C27.323 29.7524 27.2523 29.4804 27.25 29.2036C27.25 28.7837 27.4168 28.381 27.7138 28.084C28.0107 27.7871 28.4134 27.6203 28.8333 27.6203C29.2533 27.6203 29.656 27.7871 29.9529 28.084C30.2499 28.381 30.4167 28.7837 30.4167 29.2036V34.8244ZM42.5925 41.6644C42.2449 41.8025 41.874 41.8724 41.5 41.8703C41.0801 41.8703 40.6774 42.0371 40.3804 42.334C40.0835 42.631 39.9167 43.0337 39.9167 43.4536C39.9167 43.8735 40.0835 44.2763 40.3804 44.5732C40.6774 44.8701 41.0801 45.0369 41.5 45.0369C41.861 45.0375 42.2213 45.0057 42.5767 44.9419C42.9002 45.4426 43.0758 46.0243 43.0833 46.6203C43.0833 47.4601 42.7497 48.2656 42.1559 48.8594C41.562 49.4533 40.7565 49.7869 39.9167 49.7869C39.1694 49.7877 38.4459 49.5241 37.8742 49.0428C37.5508 48.774 37.134 48.6447 36.7153 48.6833C36.2966 48.7219 35.9104 48.9253 35.6417 49.2486C35.3729 49.5719 35.2436 49.9888 35.2822 50.4075C35.3208 50.8262 35.5242 51.2124 35.8475 51.4811C36.088 51.6732 36.342 51.8478 36.6075 52.0036C36.485 52.2844 36.2837 52.5236 36.0279 52.6922C35.7722 52.8608 35.473 52.9516 35.1667 52.9536C34.7468 52.9536 34.344 52.7868 34.0471 52.4899C33.7502 52.1929 33.5833 51.7902 33.5833 51.3703V48.2036C33.5869 47.5555 33.7892 46.9241 34.1629 46.3946C34.5366 45.8652 35.0639 45.4631 35.6733 45.2428C36.0723 45.1084 36.4015 44.821 36.5886 44.4439C36.7756 44.0668 36.8052 43.6309 36.6708 43.2319C36.5365 42.833 36.2491 42.5038 35.872 42.3167C35.4949 42.1297 35.0589 42.1001 34.66 42.2344C34.2882 42.3744 33.9282 42.5439 33.5833 42.7411V40.2869C33.5869 39.6389 33.7892 39.0074 34.1629 38.478C34.5366 37.9485 35.0639 37.5465 35.6733 37.3261C36.0723 37.1917 36.4015 36.9044 36.5886 36.5273C36.7756 36.1502 36.8052 35.7142 36.6708 35.3153C36.5365 34.9163 36.2491 34.5871 35.872 34.4001C35.4949 34.213 35.0589 34.1834 34.66 34.3178C34.2882 34.4578 33.9282 34.6272 33.5833 34.8244V29.2036C33.5833 28.7837 33.7502 28.381 34.0471 28.084C34.344 27.7871 34.7468 27.6203 35.1667 27.6203C35.5866 27.6203 35.9893 27.7871 36.2863 28.084C36.5832 28.381 36.75 28.7837 36.75 29.2036C36.7477 29.4804 36.677 29.7524 36.5442 29.9953C36.4388 30.175 36.37 30.3738 36.3417 30.5803C36.3133 30.7867 36.3259 30.9967 36.3789 31.1982C36.4319 31.3997 36.5241 31.5888 36.6502 31.7546C36.7764 31.9204 36.9341 32.0597 37.1142 32.1644C37.2949 32.2691 37.4945 32.337 37.7016 32.3642C37.9087 32.3914 38.1191 32.3774 38.3207 32.323C38.5223 32.2685 38.7112 32.1747 38.8764 32.047C39.0416 31.9192 39.1799 31.76 39.2833 31.5786C39.4019 31.322 39.5024 31.0575 39.5842 30.7869C39.6945 30.7716 39.8064 30.7716 39.9167 30.7869C40.3366 30.7869 40.7393 30.9538 41.0363 31.2507C41.3332 31.5476 41.5 31.9503 41.5 32.3703C41.4976 32.6807 41.404 32.9835 41.2308 33.2411C41.1014 33.4466 40.9215 33.6155 40.7083 33.7319C40.343 33.9419 40.076 34.2884 39.9662 34.6952C39.8563 35.102 39.9126 35.5358 40.1225 35.9011C40.3325 36.2664 40.679 36.5334 41.0858 36.6433C41.4926 36.7531 41.9263 36.6969 42.2917 36.4869C42.576 36.3332 42.8416 36.1473 43.0833 35.9328C43.6114 36.2267 44.0443 36.6656 44.331 37.1976C44.6176 37.7296 44.7461 38.3326 44.7011 38.9352C44.6562 39.5379 44.4397 40.1151 44.0773 40.5987C43.7149 41.0823 43.2216 41.4521 42.6558 41.6644H42.5925Z" fill="black"/>
</svg>
