<svg width="64" height="64" viewBox="0 0 64 64" fill="none" xmlns="http://www.w3.org/2000/svg">
<path d="M28.0833 42.7501C28.5364 42.7501 28.9709 42.5701 29.2913 42.2497C29.6117 41.9293 29.7917 41.4948 29.7917 41.0417V30.7917C29.7917 30.3387 29.6117 29.9041 29.2913 29.5838C28.9709 29.2634 28.5364 29.0834 28.0833 29.0834C27.6303 29.0834 27.1957 29.2634 26.8754 29.5838C26.555 29.9041 26.375 30.3387 26.375 30.7917V41.0417C26.375 41.4948 26.555 41.9293 26.8754 42.2497C27.1957 42.5701 27.6303 42.7501 28.0833 42.7501ZM45.1667 22.2501H38.3333V20.5417C38.3333 19.1825 37.7934 17.8789 36.8323 16.9178C35.8711 15.9567 34.5676 15.4167 33.2083 15.4167H29.7917C28.4324 15.4167 27.1289 15.9567 26.1677 16.9178C25.2066 17.8789 24.6667 19.1825 24.6667 20.5417V22.2501H17.8333C17.3803 22.2501 16.9457 22.4301 16.6254 22.7504C16.305 23.0708 16.125 23.5053 16.125 23.9584C16.125 24.4115 16.305 24.846 16.6254 25.1664C16.9457 25.4868 17.3803 25.6667 17.8333 25.6667H19.5417V44.4584C19.5417 45.8176 20.0816 47.1212 21.0427 48.0823C22.0039 49.0435 23.3074 49.5834 24.6667 49.5834H38.3333C39.6926 49.5834 40.9961 49.0435 41.9573 48.0823C42.9184 47.1212 43.4583 45.8176 43.4583 44.4584V25.6667H45.1667C45.6197 25.6667 46.0543 25.4868 46.3746 25.1664C46.695 24.846 46.875 24.4115 46.875 23.9584C46.875 23.5053 46.695 23.0708 46.3746 22.7504C46.0543 22.4301 45.6197 22.2501 45.1667 22.2501ZM28.0833 20.5417C28.0833 20.0887 28.2633 19.6541 28.5837 19.3338C28.9041 19.0134 29.3386 18.8334 29.7917 18.8334H33.2083C33.6614 18.8334 34.0959 19.0134 34.4163 19.3338C34.7367 19.6541 34.9167 20.0887 34.9167 20.5417V22.2501H28.0833V20.5417ZM40.0417 44.4584C40.0417 44.9115 39.8617 45.346 39.5413 45.6664C39.2209 45.9868 38.7864 46.1667 38.3333 46.1667H24.6667C24.2136 46.1667 23.7791 45.9868 23.4587 45.6664C23.1383 45.346 22.9583 44.9115 22.9583 44.4584V25.6667H40.0417V44.4584ZM34.9167 42.7501C35.3697 42.7501 35.8043 42.5701 36.1246 42.2497C36.445 41.9293 36.625 41.4948 36.625 41.0417V30.7917C36.625 30.3387 36.445 29.9041 36.1246 29.5838C35.8043 29.2634 35.3697 29.0834 34.9167 29.0834C34.4636 29.0834 34.0291 29.2634 33.7087 29.5838C33.3883 29.9041 33.2083 30.3387 33.2083 30.7917V41.0417C33.2083 41.4948 33.3883 41.9293 33.7087 42.2497C34.0291 42.5701 34.4636 42.7501 34.9167 42.7501Z" fill="#EB5757"/>
</svg>
