<svg width="64" height="64" viewBox="0 0 64 64" fill="none" xmlns="http://www.w3.org/2000/svg">
<path d="M33.6318 43.1099C33.1747 42.9448 32.6708 42.9679 32.2308 43.1742C31.7907 43.3804 31.4506 43.753 31.2851 44.2099L29.9468 47.8766C29.7817 48.3336 29.8048 48.8375 30.011 49.2776C30.2173 49.7176 30.5899 50.0577 31.0468 50.2232C31.2466 50.2958 31.4575 50.333 31.6701 50.3332C32.0469 50.3331 32.4145 50.2168 32.7228 50.0003C33.0312 49.7838 33.2653 49.4776 33.3935 49.1232L34.7318 45.4566C34.8969 44.9995 34.8738 44.4956 34.6675 44.0555C34.4613 43.6155 34.0887 43.2754 33.6318 43.1099V43.1099ZM26.2985 43.1099C25.8414 42.9448 25.3375 42.9679 24.8974 43.1742C24.4574 43.3804 24.1173 43.753 23.9518 44.2099L22.6135 47.8766C22.4483 48.3336 22.4715 48.8375 22.6777 49.2776C22.884 49.7176 23.2565 50.0577 23.7135 50.2232C23.9133 50.2958 24.1242 50.333 24.3368 50.3332C24.7136 50.3331 25.0811 50.2168 25.3895 50.0003C25.6979 49.7838 25.932 49.4776 26.0601 49.1232L27.3985 45.4566C27.5636 44.9995 27.5405 44.4956 27.3342 44.0555C27.1279 43.6155 26.7554 43.2754 26.2985 43.1099V43.1099ZM26.2985 30.2766C25.8414 30.1114 25.3375 30.1346 24.8974 30.3408C24.4574 30.5471 24.1173 30.9196 23.9518 31.3766L21.9351 36.8766C21.835 37.1533 21.8031 37.4502 21.8419 37.7419C21.8808 38.0337 21.9893 38.3118 22.1584 38.5527C22.3274 38.7937 22.5519 38.9904 22.813 39.1263C23.0741 39.2621 23.3641 39.3331 23.6585 39.3332C24.0352 39.3331 24.4028 39.2168 24.7112 39.0003C25.0195 38.7838 25.2537 38.4776 25.3818 38.1232L27.3985 32.6232C27.5636 32.1662 27.5405 31.6622 27.3342 31.2222C27.1279 30.7822 26.7554 30.442 26.2985 30.2766ZM33.6318 30.2766C33.1747 30.1114 32.6708 30.1346 32.2308 30.3408C31.7907 30.5471 31.4506 30.9196 31.2851 31.3766L29.2685 36.8766C29.1684 37.1533 29.1364 37.4502 29.1753 37.7419C29.2141 38.0337 29.3227 38.3118 29.4917 38.5527C29.6607 38.7937 29.8853 38.9904 30.1464 39.1263C30.4075 39.2621 30.6975 39.3331 30.9918 39.3332C31.3686 39.3331 31.7361 39.2168 32.0445 39.0003C32.3529 38.7838 32.587 38.4776 32.7151 38.1232L34.7318 32.6232C34.8969 32.1662 34.8738 31.6622 34.6675 31.2222C34.4613 30.7822 34.0887 30.442 33.6318 30.2766V30.2766ZM43.7701 21.4032C42.6499 18.8292 40.7167 16.6935 38.2666 15.3234C35.8165 13.9532 32.9847 13.4242 30.2052 13.8175C27.4257 14.2107 24.8518 15.5044 22.8779 17.5004C20.904 19.4964 19.639 22.0845 19.2768 24.8682C17.677 25.255 16.2539 26.1687 15.2364 27.4622C14.2188 28.7558 13.666 30.3541 13.6668 31.9999C13.6635 33.0383 13.8808 34.0656 14.3043 35.0138C14.7278 35.9619 15.3479 36.8093 16.1235 37.4999C16.3019 37.6713 16.5133 37.8049 16.7448 37.8924C16.9762 37.98 17.223 38.0198 17.4703 38.0094C17.7176 37.999 17.9602 37.9387 18.1835 37.832C18.4068 37.7254 18.6063 37.5746 18.7698 37.3888C18.9332 37.203 19.0574 36.9861 19.1348 36.751C19.2122 36.5159 19.2412 36.2676 19.2201 36.021C19.1989 35.7745 19.1281 35.5347 19.0118 35.3163C18.8955 35.0978 18.7362 34.9051 18.5435 34.7499C18.159 34.4029 17.8524 33.9785 17.6439 33.5045C17.4353 33.0305 17.3295 32.5177 17.3335 31.9999C17.3335 31.0274 17.7198 30.0948 18.4074 29.4072C19.095 28.7195 20.0277 28.3332 21.0001 28.3332C21.4863 28.3332 21.9527 28.1401 22.2965 27.7962C22.6403 27.4524 22.8335 26.9861 22.8335 26.4999C22.8381 24.3316 23.6113 22.2351 25.0156 20.583C26.4199 18.9308 28.3644 17.83 30.5037 17.476C32.6429 17.122 34.8384 17.5378 36.7 18.6496C38.5616 19.7613 39.9689 21.497 40.6718 23.5482C40.7766 23.8633 40.965 24.1439 41.2168 24.3603C41.4687 24.5766 41.7745 24.7205 42.1018 24.7766C43.3744 24.9961 44.5292 25.6564 45.3639 26.6419C46.1985 27.6274 46.6597 28.8751 46.6668 30.1666C46.6948 31.5164 46.21 32.8267 45.3101 33.8332C45.0174 34.1977 44.875 34.6602 44.912 35.1262C44.949 35.5922 45.1626 36.0265 45.5091 36.3402C45.8556 36.6539 46.3089 36.8235 46.7763 36.8141C47.2436 36.8048 47.6898 36.6172 48.0235 36.2899C49.0333 35.1359 49.7375 33.747 50.0715 32.2505C50.4056 30.7539 50.3589 29.1974 49.9357 27.7235C49.5126 26.2496 48.7264 24.9055 47.6492 23.8141C46.5721 22.7227 45.2383 21.919 43.7701 21.4766V21.4032ZM40.9651 43.1099C40.5081 42.9448 40.0041 42.9679 39.5641 43.1742C39.1241 43.3804 38.7839 43.753 38.6185 44.2099L37.2801 47.8766C37.115 48.3336 37.1381 48.8375 37.3444 49.2776C37.5506 49.7176 37.9232 50.0577 38.3801 50.2232C38.5799 50.2958 38.7909 50.333 39.0035 50.3332C39.3802 50.3331 39.7478 50.2168 40.0562 50.0003C40.3645 49.7838 40.5987 49.4776 40.7268 49.1232L42.0651 45.4566C42.2302 44.9995 42.2071 44.4956 42.0009 44.0555C41.7946 43.6155 41.4221 43.2754 40.9651 43.1099ZM40.9651 30.2766C40.5081 30.1114 40.0041 30.1346 39.5641 30.3408C39.1241 30.5471 38.7839 30.9196 38.6185 31.3766L36.6018 36.8766C36.5017 37.1533 36.4698 37.4502 36.5086 37.7419C36.5475 38.0337 36.656 38.3118 36.825 38.5527C36.9941 38.7937 37.2186 38.9904 37.4797 39.1263C37.7408 39.2621 38.0308 39.3331 38.3251 39.3332C38.7019 39.3331 39.0695 39.2168 39.3778 39.0003C39.6862 38.7838 39.9203 38.4776 40.0485 38.1232L42.0651 32.6232C42.2302 32.1662 42.2071 31.6622 42.0009 31.2222C41.7946 30.7822 41.4221 30.442 40.9651 30.2766Z" fill="black"/>
</svg>
