<svg width="64" height="64" viewBox="0 0 64 64" fill="none" xmlns="http://www.w3.org/2000/svg">
<path d="M37.1833 36.6834C38.8173 35.3978 40.01 33.6349 40.5954 31.6399C41.1808 29.645 41.1299 27.5172 40.4496 25.5525C39.7694 23.5878 38.4938 21.884 36.8001 20.6781C35.1065 19.4722 33.0791 18.8242 31 18.8242C28.9209 18.8242 26.8935 19.4722 25.1999 20.6781C23.5062 21.884 22.2306 23.5878 21.5503 25.5525C20.8701 27.5172 20.8192 29.645 21.4046 31.6399C21.99 33.6349 23.1827 35.3978 24.8167 36.6834C22.0168 37.8051 19.5738 39.6656 17.7481 42.0666C15.9225 44.4675 14.7826 47.3189 14.45 50.3167C14.4259 50.5356 14.4452 50.7571 14.5067 50.9685C14.5682 51.1799 14.6708 51.3771 14.8085 51.5489C15.0867 51.8959 15.4913 52.1181 15.9333 52.1667C16.3754 52.2153 16.8186 52.0864 17.1655 51.8082C17.5125 51.53 17.7347 51.1254 17.7833 50.6834C18.1493 47.4254 19.7028 44.4164 22.147 42.2314C24.5912 40.0463 27.7548 38.8384 31.0333 38.8384C34.3118 38.8384 37.4754 40.0463 39.9196 42.2314C42.3638 44.4164 43.9174 47.4254 44.2833 50.6834C44.3286 51.0929 44.5241 51.4711 44.8318 51.7451C45.1396 52.019 45.538 52.1692 45.95 52.1667H46.1333C46.5702 52.1164 46.9695 51.8955 47.2443 51.5521C47.519 51.2087 47.6469 50.7706 47.6 50.3334C47.2658 47.3271 46.1198 44.4684 44.2847 42.0637C42.4497 39.6591 39.9949 37.7992 37.1833 36.6834ZM31 35.5C29.6815 35.5 28.3925 35.1091 27.2962 34.3765C26.1999 33.644 25.3454 32.6028 24.8408 31.3846C24.3362 30.1664 24.2042 28.826 24.4614 27.5328C24.7187 26.2396 25.3536 25.0517 26.2859 24.1193C27.2183 23.187 28.4062 22.552 29.6994 22.2948C30.9926 22.0376 32.333 22.1696 33.5512 22.6742C34.7694 23.1788 35.8106 24.0332 36.5431 25.1296C37.2757 26.2259 37.6667 27.5148 37.6667 28.8334C37.6667 30.6015 36.9643 32.2972 35.714 33.5474C34.4638 34.7977 32.7681 35.5 31 35.5Z" fill="black"/>
<path fill-rule="evenodd" clip-rule="evenodd" d="M38.3333 13.8333C38.3333 13.281 38.781 12.8333 39.3333 12.8333H42.4444C42.8017 12.8333 43.1319 13.0239 43.3105 13.3334C43.4891 13.6429 43.489 14.0241 43.3102 14.3335L41.2882 17.8333H42.6666C43.2189 17.8333 43.6666 18.281 43.6666 18.8333C43.6666 19.3855 43.2189 19.8333 42.6666 19.8333H39.5555C39.1982 19.8333 38.868 19.6426 38.6894 19.3331C38.5108 19.0236 38.5108 18.6424 38.6896 18.333L40.7117 14.8333H39.3333C38.781 14.8333 38.3333 14.3855 38.3333 13.8333Z" fill="black"/>
<path fill-rule="evenodd" clip-rule="evenodd" d="M45 18.8333C45 18.281 45.4477 17.8333 46 17.8333H49.1111C49.4684 17.8333 49.7986 18.0239 49.9772 18.3334C50.1558 18.6429 50.1557 19.0241 49.977 19.3335L47.9549 22.8333H49.3333C49.8856 22.8333 50.3333 23.281 50.3333 23.8333C50.3333 24.3855 49.8856 24.8333 49.3333 24.8333H46.2222C45.8649 24.8333 45.5347 24.6426 45.3561 24.3331C45.1775 24.0236 45.1776 23.6424 45.3564 23.333L47.3784 19.8333H46C45.4477 19.8333 45 19.3855 45 18.8333Z" fill="black"/>
<path fill-rule="evenodd" clip-rule="evenodd" d="M45 10.5C45 9.94772 45.4477 9.5 46 9.5H49.1111C49.4684 9.5 49.7986 9.69066 49.9772 10.0001C50.1558 10.3096 50.1557 10.6909 49.977 11.0003L47.9549 14.5H49.3333C49.8856 14.5 50.3333 14.9477 50.3333 15.5C50.3333 16.0523 49.8856 16.5 49.3333 16.5H46.2222C45.8649 16.5 45.5347 16.3093 45.3561 15.9999C45.1775 15.6904 45.1776 15.3091 45.3564 14.9997L47.3784 11.5H46C45.4477 11.5 45 11.0523 45 10.5Z" fill="black"/>
</svg>
