<svg width="64" height="64" viewBox="0 0 64 64" fill="none" xmlns="http://www.w3.org/2000/svg">
<path fill-rule="evenodd" clip-rule="evenodd" d="M23.4921 19.6313C21.3905 22.4066 20.5936 25.7743 20.5157 27.9883C20.5076 28.2197 20.446 28.4461 20.3357 28.6497L16.6087 35.5332H19.0167C19.8451 35.5332 20.5167 36.2047 20.5167 37.0332V41.7742C20.5167 43.018 21.0037 43.6235 21.5151 43.9726C22.1115 44.3797 22.8806 44.5178 23.3804 44.5033C23.3949 44.5029 23.4095 44.5027 23.424 44.5027H30.2942C31.1227 44.5027 31.7942 45.1742 31.7942 46.0027V51C31.7942 51.8284 31.1227 52.5 30.2942 52.5C29.4658 52.5 28.7942 51.8284 28.7942 51V47.5027H23.4439C22.4751 47.5264 21.0537 47.2899 19.8237 46.4503C18.4987 45.5458 17.5167 44.0157 17.5167 41.7742V38.5332H14.0908C13.5622 38.5332 13.0727 38.255 12.8022 37.8009C12.5316 37.3468 12.5201 36.7838 12.7718 36.319L17.5349 27.5218C17.6978 24.8365 18.664 21.0378 21.1004 17.8203C23.6998 14.3876 27.9175 11.7 34.3127 11.7C40.7143 11.7 44.7686 14.3968 47.1331 17.884C49.4196 21.256 50.049 25.2428 49.9433 27.936C49.9839 29.0722 49.7503 30.8785 49.1767 32.7087C48.5975 34.5567 47.6065 36.6406 45.987 38.1107C45.9735 38.1342 45.9272 38.2142 45.8631 38.386C45.7606 38.6607 45.656 39.0506 45.5603 39.5536C45.3695 40.5552 45.2413 41.8566 45.1874 43.2604C45.0775 46.1184 45.2858 49.0845 45.7308 50.5693C45.9687 51.3628 45.5182 52.1989 44.7247 52.4368C43.9311 52.6747 43.095 52.2242 42.8571 51.4306C42.2652 49.4558 42.0766 46.0832 42.1896 43.1451C42.247 41.6509 42.3852 40.1898 42.6132 38.9924C42.7268 38.3958 42.8697 37.827 43.0524 37.3373C43.2192 36.8901 43.4847 36.3243 43.9422 35.9151C45.0183 34.9527 45.8075 33.4275 46.314 31.8115C46.8193 30.1993 46.9769 28.7116 46.9437 28.006C46.9416 27.9606 46.9415 27.9151 46.9435 27.8696C47.0411 25.6515 46.5083 22.308 44.6501 19.5676C42.8514 16.9149 39.7331 14.7 34.3127 14.7C28.8858 14.7 25.542 16.9242 23.4921 19.6313Z" fill="black"/>
<path fill-rule="evenodd" clip-rule="evenodd" d="M26.6324 33.6429L28.6323 33.6587L28.6876 26.6817L31.7211 29.7636L32.204 17.4392L30.2055 17.3609L29.9036 25.066L26.7259 21.8375L26.6324 33.6429Z" fill="black"/>
<path fill-rule="evenodd" clip-rule="evenodd" d="M40.4943 35.6384L42.3142 34.809L39.4206 28.46L43.4712 29.9743L38.7092 18.5968L36.8643 19.3689L39.8414 26.4821L35.5983 24.8958L40.4943 35.6384Z" fill="black"/>
</svg>
