<svg width="64" height="64" viewBox="0 0 64 64" fill="none" xmlns="http://www.w3.org/2000/svg">
<path d="M25.8092 26.3689L25.8056 26.372L25.8021 26.3754L25.8092 26.3689ZM41.8463 26.0569C41.7343 25.9447 41.6099 25.8466 41.4758 25.7645C41.286 25.6485 41.0753 25.5742 40.8567 25.5461C40.6381 25.518 40.4163 25.5368 40.205 25.6013C39.9937 25.6657 39.7973 25.7745 39.6281 25.9209C39.4589 26.0672 39.3204 26.2481 39.2212 26.4522C38.6662 27.5874 37.9008 28.5977 36.9689 29.4251C37.1114 28.5915 37.1832 27.7464 37.1836 26.8998C37.1866 24.324 36.5321 21.7934 35.2868 19.5657C34.0415 17.338 32.2498 15.4926 30.0941 14.2176C29.8567 14.0778 29.5889 14.003 29.3159 14.0001C29.043 13.9972 28.7738 14.0664 28.5337 14.2011C28.2935 14.3358 28.0902 14.5316 27.943 14.7702C27.7957 15.0088 27.7092 15.2824 27.6916 15.5652C27.6015 17.1512 27.2021 18.7016 26.5178 20.1227C25.8334 21.5437 24.8783 22.8057 23.7103 23.8321L23.339 24.1458C22.1176 24.999 21.0366 26.0508 20.1372 27.2608C18.7393 29.0892 17.7709 31.2306 17.3089 33.5152C16.8468 35.7998 16.9038 38.1647 17.4754 40.4225C18.0469 42.6802 19.1172 44.7687 20.6015 46.5222C22.0858 48.2757 23.9432 49.6461 26.0263 50.5247C26.2709 50.6284 26.5364 50.6681 26.7992 50.6402C27.0621 50.6123 27.3143 50.5176 27.5336 50.3646C27.7529 50.2116 27.9325 50.0049 28.0567 49.7628C28.1809 49.5206 28.2457 49.2505 28.2456 48.9761C28.2444 48.7987 28.2174 48.6224 28.1653 48.4534C27.8049 47.0467 27.7011 45.5825 27.8593 44.1362C29.3838 47.1214 31.8309 49.4877 34.8072 50.8546C35.1705 51.0233 35.5812 51.0461 35.9597 50.9183C38.3112 50.1303 40.4296 48.7312 42.1136 46.8538C43.7975 44.9764 44.9912 42.6832 45.581 40.192C46.1709 37.7008 46.1374 35.0943 45.4837 32.6203C44.8301 30.1464 43.578 27.887 41.8463 26.0569ZM35.5553 47.5191C34.1509 46.7801 32.9121 45.7426 31.9193 44.4739C30.9265 43.2052 30.202 41.7339 29.7929 40.1554C29.668 39.6239 29.5714 39.0857 29.5034 38.5432C29.4574 38.1977 29.3086 37.8757 29.0777 37.6224C28.8468 37.3691 28.5454 37.197 28.2157 37.1302C28.1141 37.1094 28.0108 37.099 27.9072 37.0992C27.6241 37.0991 27.3459 37.1765 27.1007 37.3236C26.8556 37.4707 26.6521 37.6824 26.5109 37.9372C25.1741 40.331 24.5018 43.0623 24.5686 45.8285C23.3929 44.8794 22.4103 43.6975 21.6777 42.3513C20.9452 41.0051 20.4773 39.5213 20.3012 37.986C20.1251 36.4506 20.2442 34.8943 20.6517 33.4071C21.0592 31.9199 21.7469 30.5315 22.6751 29.3223C23.3798 28.3719 24.2299 27.548 25.1916 26.8835C25.2333 26.8556 25.2732 26.8251 25.3112 26.792C25.3112 26.792 25.7892 26.3814 25.8055 26.372C28.1009 24.3564 29.7334 21.6476 30.4757 18.623C32.2311 20.3078 33.4016 22.5472 33.8055 24.9934C34.2093 27.4397 33.8239 29.9559 32.7091 32.1514C32.5618 32.4444 32.5014 32.7761 32.5354 33.1047C32.5695 33.4333 32.6965 33.744 32.9005 33.9977C33.1045 34.2514 33.3763 34.4367 33.6816 34.5303C33.9869 34.6238 34.312 34.6214 34.616 34.5233C37.0838 33.7201 39.2555 32.1513 40.8386 30.028C41.79 31.487 42.412 33.1502 42.6583 34.8935C42.9046 36.6369 42.7687 38.4155 42.2609 40.0967C41.7531 41.778 40.8863 43.3186 39.7253 44.6037C38.5643 45.8889 37.1388 46.8854 35.5553 47.5191L35.5553 47.5191Z" fill="black"/>
</svg>
