<svg width="64" height="64" viewBox="0 0 64 64" fill="none" xmlns="http://www.w3.org/2000/svg">
<path d="M45.7583 21.9948L42.0488 21.4533L44.3723 18.5114C44.4892 18.3633 44.5425 18.1748 44.5205 17.9874C44.4985 17.7999 44.4029 17.6289 44.2548 17.5119C44.1067 17.3949 43.9182 17.3415 43.7308 17.3635C43.5434 17.3854 43.3723 17.4809 43.2552 17.6289L40.9315 20.571L39.5455 17.0876C39.4758 16.9122 39.3392 16.7717 39.1658 16.697C38.9925 16.6224 38.7965 16.6196 38.6212 16.6894C38.4458 16.7592 38.3053 16.8958 38.2306 17.0691C38.156 17.2425 38.1532 17.4384 38.223 17.6138L39.609 21.0972L35.8992 20.5557C35.7124 20.5286 35.5226 20.5767 35.3713 20.6895C35.22 20.8023 35.1197 20.9706 35.0925 21.1574C35.0652 21.3441 35.1133 21.534 35.226 21.6854C35.3388 21.8367 35.507 21.9371 35.6937 21.9644L39.4032 22.5059L37.0797 25.4478C36.9628 25.5959 36.9095 25.7844 36.9315 25.9718C36.9535 26.1593 37.0491 26.3303 37.1972 26.4473C37.3453 26.5642 37.5338 26.6176 37.7212 26.5957C37.9086 26.5738 38.0797 26.4783 38.1968 26.3303L40.5205 23.3882L41.9065 26.8716C41.9762 27.047 42.1128 27.1875 42.2862 27.2622C42.4595 27.3368 42.6555 27.3396 42.8308 27.2698C43.0062 27.2 43.1467 27.0634 43.2214 26.8901C43.296 26.7167 43.2988 26.5208 43.229 26.3454L41.843 22.862L45.5528 23.4035C45.7396 23.4306 45.9294 23.3825 46.0807 23.2697C46.232 23.1568 46.3323 22.9886 46.3595 22.8018C46.3868 22.6151 46.3387 22.4252 46.226 22.2738C46.1132 22.1225 45.945 22.0221 45.7583 21.9948L45.7583 21.9948Z" fill="black"/>
<g clip-path="url(#clip0_1263_3905)">
<path d="M52.2749 30.3667L49.9143 30.0221L51.393 28.15C51.4674 28.0557 51.5013 27.9358 51.4873 27.8165C51.4732 27.6972 51.4124 27.5884 51.3182 27.5139C51.2239 27.4395 51.104 27.4055 50.9847 27.4195C50.8654 27.4334 50.7566 27.4942 50.6821 27.5884L49.2034 29.4606L48.3214 27.2439C48.277 27.1323 48.19 27.0429 48.0797 26.9954C47.9694 26.9478 47.8447 26.9461 47.7331 26.9905C47.6215 27.0349 47.5321 27.1218 47.4846 27.2321C47.4371 27.3425 47.4353 27.4671 47.4797 27.5787L48.3617 29.7955L46.001 29.4509C45.8821 29.4336 45.7613 29.4642 45.665 29.536C45.5688 29.6078 45.5049 29.7149 45.4876 29.8338C45.4703 29.9526 45.5008 30.0735 45.5726 30.1698C45.6443 30.2661 45.7514 30.3299 45.8702 30.3473L48.2308 30.6919L46.7522 32.564C46.6778 32.6583 46.6439 32.7782 46.6579 32.8975C46.6719 33.0168 46.7327 33.1256 46.827 33.2001C46.9212 33.2745 47.0411 33.3085 47.1604 33.2945C47.2797 33.2806 47.3886 33.2198 47.4631 33.1256L48.9418 31.2534L49.8238 33.4701C49.8682 33.5817 49.9551 33.6711 50.0654 33.7186C50.1757 33.7662 50.3004 33.7679 50.412 33.7235C50.5236 33.6791 50.613 33.5922 50.6605 33.4818C50.7081 33.3715 50.7098 33.2469 50.6654 33.1353L49.7834 30.9185L52.1442 31.2631C52.263 31.2804 52.3839 31.2498 52.4801 31.178C52.5764 31.1062 52.6402 30.9991 52.6575 30.8802C52.6749 30.7614 52.6443 30.6405 52.5726 30.5442C52.5008 30.4479 52.3938 30.3841 52.2749 30.3667L52.2749 30.3667Z" fill="black"/>
</g>
<path d="M53.7947 15.0882L50.7596 14.6452L52.6607 12.2382C52.7564 12.117 52.8 11.9627 52.782 11.8094C52.7639 11.656 52.6857 11.5161 52.5646 11.4204C52.4434 11.3247 52.2892 11.281 52.1358 11.299C51.9825 11.3169 51.8425 11.395 51.7467 11.5161L49.8455 13.9233L48.7115 11.0732C48.6544 10.9297 48.5427 10.8148 48.4008 10.7537C48.259 10.6926 48.0987 10.6903 47.9552 10.7474C47.8117 10.8045 47.6968 10.9163 47.6357 11.0581C47.5746 11.1999 47.5724 11.3602 47.6294 11.5037L48.7634 14.3538L45.7282 13.9108C45.5754 13.8886 45.42 13.9279 45.2962 14.0202C45.1724 14.1126 45.0904 14.2502 45.0681 14.403C45.0458 14.5558 45.0851 14.7112 45.1774 14.835C45.2696 14.9589 45.4073 15.041 45.5601 15.0633L48.5951 15.5064L46.694 17.9134C46.5983 18.0346 46.5547 18.1888 46.5728 18.3421C46.5908 18.4955 46.669 18.6354 46.7902 18.7311C46.9113 18.8268 47.0655 18.8705 47.2189 18.8526C47.3722 18.8346 47.5122 18.7565 47.608 18.6354L49.5092 16.2283L50.6432 19.0783C50.7003 19.2218 50.812 19.3368 50.9539 19.3979C51.0957 19.459 51.256 19.4612 51.3995 19.4041C51.543 19.347 51.6579 19.2353 51.719 19.0934C51.7801 18.9516 51.7824 18.7913 51.7253 18.6478L50.5913 15.7977L53.6266 16.2408C53.7794 16.263 53.9347 16.2236 54.0585 16.1313C54.1823 16.039 54.2643 15.9013 54.2866 15.7485C54.3089 15.5957 54.2696 15.4403 54.1773 15.3165C54.0851 15.1927 53.9474 15.1106 53.7947 15.0882L53.7947 15.0882Z" fill="black"/>
<path fill-rule="evenodd" clip-rule="evenodd" d="M42.0558 33.9502C40.9811 34.4577 39.9578 34.9056 38.9842 35.2975C21.5133 42.3288 20.0764 31.2914 26.0068 22.0089C26.622 21.0459 27.3165 20.1018 28.0807 19.1987C26.8127 18.9874 25.5735 18.9514 24.3787 19.0681C16.7944 19.809 11 26.702 11 33.9502C11 42.526 17.9521 49.4781 26.5279 49.4781C33.9095 49.4781 40.0881 44.3274 41.6658 37.424C41.921 36.3071 42.0558 35.1444 42.0558 33.9502ZM38.0611 38.8505C36.1537 43.3343 31.7079 46.4781 26.5279 46.4781C19.6089 46.4781 14 40.8692 14 33.9502C14 28.9421 17.4615 24.2247 22.2066 22.6016C21.5665 23.8444 21.0427 25.1051 20.6533 26.3525C19.707 29.3833 19.43 32.7626 20.767 35.5985C22.2341 38.7098 25.2547 40.3899 29.1394 40.5176C31.6523 40.6002 34.6191 40.0549 38.0611 38.8505Z" fill="#1B1B1B"/>
<defs>
<clipPath id="clip0_1263_3905">
<rect width="10.8695" height="10.8695" fill="white" transform="translate(42.0137 27.3164) rotate(-21.6964)"/>
</clipPath>
</defs>
</svg>
