<svg width="64" height="64" viewBox="0 0 64 64" fill="none" xmlns="http://www.w3.org/2000/svg">
<path d="M43.6667 15.3333C43.2247 15.3333 42.8008 15.5088 42.4882 15.8214C42.1757 16.134 42.0001 16.5579 42.0001 16.9999V26.0999L40.3334 27.2166V16.9999C40.3334 16.5579 40.1578 16.134 39.8453 15.8214C39.5327 15.5088 39.1088 15.3333 38.6667 15.3333C38.2247 15.3333 37.8008 15.5088 37.4882 15.8214C37.1757 16.134 37.0001 16.5579 37.0001 16.9999V27.2166L35.3334 26.0999V16.9999C35.3334 16.5579 35.1578 16.134 34.8453 15.8214C34.5327 15.5088 34.1088 15.3333 33.6667 15.3333C33.2247 15.3333 32.8008 15.5088 32.4882 15.8214C32.1757 16.134 32.0001 16.5579 32.0001 16.9999V26.9999C32.0015 27.2744 32.0707 27.5443 32.2015 27.7857C32.3324 28.027 32.5208 28.2323 32.7501 28.3833L37.0001 31.2333V46.9999C37.0001 47.4419 37.1757 47.8659 37.4882 48.1784C37.8008 48.491 38.2247 48.6666 38.6667 48.6666C39.1088 48.6666 39.5327 48.491 39.8453 48.1784C40.1578 47.8659 40.3334 47.4419 40.3334 46.9999V31.2333L44.5834 28.3833C44.8127 28.2323 45.0011 28.027 45.1319 27.7857C45.2628 27.5443 45.332 27.2744 45.3334 26.9999V16.9999C45.3334 16.5579 45.1578 16.134 44.8453 15.8214C44.5327 15.5088 44.1088 15.3333 43.6667 15.3333ZM27.0001 15.3333C24.7899 15.3333 22.6703 16.2112 21.1075 17.774C19.5447 19.3368 18.6667 21.4564 18.6667 23.6666V33.6666C18.6667 34.1086 18.8423 34.5325 19.1549 34.8451C19.4675 35.1577 19.8914 35.3333 20.3334 35.3333H25.3334V46.9999C25.3334 47.4419 25.509 47.8659 25.8216 48.1784C26.1341 48.491 26.5581 48.6666 27.0001 48.6666C27.4421 48.6666 27.866 48.491 28.1786 48.1784C28.4912 47.8659 28.6667 47.4419 28.6667 46.9999V16.9999C28.6667 16.5579 28.4912 16.134 28.1786 15.8214C27.866 15.5088 27.4421 15.3333 27.0001 15.3333ZM25.3334 31.9999H22.0001V23.6666C21.9995 22.6322 22.3198 21.623 22.9168 20.7783C23.5138 19.9335 24.3582 19.2947 25.3334 18.9499V31.9999Z" fill="black"/>
</svg>
