<svg width="64" height="64" viewBox="0 0 64 64" fill="none" xmlns="http://www.w3.org/2000/svg">
<path fill-rule="evenodd" clip-rule="evenodd" d="M30.3537 15.298C31.8684 14.6901 34.0198 14.2086 36.5969 14.7082C36.6756 14.7234 36.8722 14.7933 37.1146 15.2456C37.3597 15.7031 37.5489 16.3813 37.6424 17.1999C37.7341 18.0037 37.7234 18.8531 37.6321 19.5947C37.5607 20.1752 37.4498 20.6099 37.3461 20.8855C37.3169 20.8872 37.2833 20.8884 37.2448 20.8888C36.8447 20.8929 36.2442 20.7919 35.4891 20.5744C34.0017 20.1461 32.3057 19.3828 31.2262 18.7926L30.1158 18.1855L29.3304 19.1779L30.5066 20.1087C29.3304 19.1779 29.3301 19.1783 29.3297 19.1787L29.3271 19.1821L29.322 19.1886L29.3067 19.2081C29.2944 19.2241 29.2776 19.246 29.2567 19.2736C29.215 19.3288 29.1569 19.4069 29.085 19.5068C28.9414 19.7065 28.7423 19.9939 28.5086 20.3595C28.0421 21.0894 27.4331 22.1383 26.8521 23.4305C25.6965 26.0001 24.6108 29.6229 25.0694 33.6472L25.444 36.9342L27.6667 34.4896L27.6687 34.4874L27.6745 34.4813C27.6828 34.4724 27.6978 34.4566 27.7192 34.4345C27.762 34.3904 27.8304 34.3215 27.9229 34.2329C28.1082 34.0556 28.3882 33.8017 28.7508 33.5126C29.4808 32.9305 30.5193 32.2273 31.7714 31.7106C34.208 30.7051 37.4851 30.3704 41.1173 33.2221L42.3809 34.2142L43.2539 32.93C43.2725 32.91 43.3149 32.8669 43.3861 32.8079C43.5445 32.6766 43.8568 32.4576 44.3861 32.2409C45.4436 31.8081 47.4234 31.3632 50.8437 31.7215L51.1562 28.7378C47.366 28.3407 44.8676 28.8022 43.2496 29.4645C42.7296 29.6773 42.3064 29.9087 41.9656 30.1336C37.6892 27.2791 33.6299 27.6982 30.627 28.9374C29.6345 29.347 28.761 29.8428 28.0304 30.3285C28.2362 28.1861 28.879 26.2378 29.5881 24.6608C30.0813 23.5642 30.5972 22.6681 30.9959 22.0388C32.0951 22.5606 33.4161 23.0993 34.6589 23.4572C35.5211 23.7056 36.4471 23.8972 37.2756 23.8887C38.0237 23.881 39.2331 23.6945 39.8594 22.5815C40.2655 21.8599 40.495 20.8933 40.6097 19.961C40.7287 18.9933 40.7425 17.9067 40.623 16.8596C40.5052 15.8274 40.2472 14.74 39.7589 13.8287C39.2679 12.9124 38.445 12.0106 37.1678 11.763C33.9005 11.1296 31.1563 11.7433 29.2364 12.5138C28.2777 12.8986 27.5191 13.3242 26.9932 13.6592C26.7298 13.827 26.5232 13.973 26.3775 14.0813C26.3046 14.1354 26.2468 14.1802 26.2046 14.2137C26.1835 14.2305 26.1662 14.2444 26.153 14.2553L26.136 14.2693L26.1297 14.2745L26.1271 14.2766L26.126 14.2776C26.1255 14.2781 26.1249 14.2785 27.0911 15.4259L26.1249 14.2785L25.9488 14.4268L25.8252 14.6211C25.4525 15.2073 24.8177 16.144 24.1432 17.0207C23.4259 17.9531 22.8045 18.6287 22.4518 18.8688C21.602 19.4474 20.2445 20.6499 18.8963 22.0985C17.5413 23.5543 16.0963 25.3643 15.137 27.1906C14.366 28.6582 13.5542 30.9288 12.9006 33.313C12.2439 35.7087 11.7146 38.3366 11.5533 40.5433C11.5511 40.5732 11.5488 40.6042 11.5464 40.6363C11.4935 41.3451 11.4011 42.5824 11.823 43.727C12.0589 44.3671 12.4567 44.9944 13.0923 45.5047C13.7213 46.0096 14.5084 46.3401 15.4374 46.5091C22.6625 47.8233 29.0861 47.707 33.7052 47.2628C36.0165 47.0406 37.8811 46.7357 39.1748 46.4846C39.8219 46.359 40.3266 46.2467 40.6735 46.1648C40.6834 46.1624 40.6932 46.1601 40.7028 46.1578C41.5188 46.5392 42.6766 47.2326 43.7911 48.1309C45.1321 49.2119 46.2068 50.4272 46.6422 51.5447L49.4375 50.4555C48.7192 48.6122 47.1626 46.9953 45.6738 45.7952C44.1648 44.579 42.5181 43.6261 41.3714 43.1816L40.9097 43.0025L40.4332 43.1333L40.4321 43.1336L40.4303 43.1341L40.4126 43.1389C40.3956 43.1434 40.3681 43.1506 40.3304 43.1602C40.2551 43.1795 40.1389 43.2085 39.9839 43.2451C39.6739 43.3183 39.2085 43.422 38.6031 43.5395C37.3921 43.7746 35.623 44.0646 33.4181 44.2766C29.0049 44.701 22.8669 44.8113 15.9743 43.5575C15.429 43.4583 15.1331 43.2959 14.9703 43.1653C14.8141 43.0399 14.7113 42.8888 14.6379 42.6895C14.4602 42.2074 14.4853 41.5831 14.5453 40.762C14.6877 38.8145 15.1679 36.3895 15.7939 34.1062C16.423 31.8114 17.1671 29.7768 17.7928 28.5858C18.5792 27.0888 19.8287 25.5 21.0923 24.1424C22.3627 22.7775 23.5479 21.7519 24.1402 21.3486C24.9412 20.8033 25.8252 19.7543 26.5209 18.85C27.1785 17.9953 27.7944 17.0992 28.2121 16.456C28.3049 16.3884 28.4367 16.2967 28.6049 16.1895C29.0017 15.9368 29.5951 15.6024 30.3537 15.298ZM37.5104 20.8614C37.5096 20.8608 37.5009 20.8628 37.4865 20.8688C37.5039 20.865 37.5111 20.8619 37.5104 20.8614Z" fill="black"/>
<path fill-rule="evenodd" clip-rule="evenodd" d="M41.016 37.6912L40.1215 35.9023L34.7265 38.5999L36.2827 34.1496L25.9145 38.7321L26.723 40.5614L32.8722 37.8436L31.2112 42.5936L41.016 37.6912Z" fill="black"/>
</svg>
