<svg width="64" height="64" viewBox="0 0 64 64" fill="none" xmlns="http://www.w3.org/2000/svg">
<path d="M37.4 30.2C37.756 30.2 38.104 30.0944 38.4 29.8966C38.696 29.6989 38.9268 29.4177 39.063 29.0888C39.1992 28.7599 39.2349 28.398 39.1654 28.0488C39.096 27.6997 38.9245 27.3789 38.6728 27.1272C38.4211 26.8755 38.1003 26.704 37.7512 26.6346C37.402 26.5651 37.0401 26.6008 36.7112 26.737C36.3823 26.8733 36.1011 27.104 35.9034 27.4C35.7056 27.696 35.6 28.044 35.6 28.4C35.6 28.8774 35.7896 29.3352 36.1272 29.6728C36.4648 30.0104 36.9226 30.2 37.4 30.2ZM26.6 30.2C26.956 30.2 27.304 30.0944 27.6 29.8966C27.896 29.6989 28.1268 29.4177 28.263 29.0888C28.3992 28.7599 28.4349 28.398 28.3654 28.0488C28.296 27.6997 28.1245 27.3789 27.8728 27.1272C27.6211 26.8755 27.3003 26.704 26.9512 26.6346C26.602 26.5651 26.2401 26.6008 25.9112 26.737C25.5823 26.8733 25.3011 27.104 25.1034 27.4C24.9056 27.696 24.8 28.044 24.8 28.4C24.8 28.8774 24.9896 29.3352 25.3272 29.6728C25.6648 30.0104 26.1226 30.2 26.6 30.2ZM32 14C28.4399 14 24.9598 15.0557 21.9997 17.0335C19.0397 19.0114 16.7326 21.8226 15.3702 25.1117C14.0078 28.4008 13.6513 32.02 14.3459 35.5116C15.0404 39.0033 16.7547 42.2106 19.2721 44.7279C21.7894 47.2453 24.9967 48.9596 28.4884 49.6541C31.98 50.3487 35.5992 49.9922 38.8883 48.6298C42.1774 47.2674 44.9886 44.9603 46.9665 42.0003C48.9443 39.0402 50 35.5601 50 32C50 29.6362 49.5344 27.2956 48.6298 25.1117C47.7253 22.9278 46.3994 20.9435 44.7279 19.2721C43.0565 17.6006 41.0722 16.2748 38.8883 15.3702C36.7044 14.4656 34.3638 14 32 14ZM32 46.4C29.152 46.4 26.3679 45.5554 23.9998 43.9732C21.6317 42.3909 19.786 40.1419 18.6961 37.5106C17.6062 34.8794 17.3211 31.984 17.8767 29.1907C18.4323 26.3974 19.8038 23.8315 21.8177 21.8177C23.8315 19.8038 26.3974 18.4323 29.1907 17.8767C31.984 17.3211 34.8794 17.6062 37.5106 18.6961C40.1419 19.786 42.3909 21.6317 43.9732 23.9998C45.5555 26.3679 46.4 29.1519 46.4 32C46.4 35.8191 44.8829 39.4818 42.1823 42.1823C39.4818 44.8829 35.8191 46.4 32 46.4ZM39.704 33.584C39.407 33.2131 38.9754 32.9747 38.5033 32.9207C38.0313 32.8668 37.557 33.0017 37.184 33.296C36.4478 33.8979 35.8984 34.6971 35.6 35.6H29.03C28.7381 34.6788 28.1884 33.8605 27.446 33.242C27.0693 32.9777 26.6056 32.8677 26.1503 32.9347C25.6951 33.0016 25.2827 33.2404 24.998 33.602C24.7051 33.9694 24.5676 34.4368 24.6147 34.9043C24.6617 35.3718 24.8898 35.8023 25.25 36.104C25.5652 36.4597 25.727 36.9255 25.7 37.4C25.7108 37.8721 25.5511 38.3322 25.25 38.696C25.0572 38.8408 24.8955 39.0229 24.7745 39.2314C24.6534 39.4399 24.5755 39.6706 24.5453 39.9098C24.5151 40.1491 24.5333 40.3919 24.5988 40.6239C24.6643 40.856 24.7757 41.0725 24.9265 41.2607C25.0772 41.4488 25.2643 41.6048 25.4765 41.7193C25.6887 41.8338 25.9217 41.9045 26.1617 41.9271C26.4018 41.9498 26.6439 41.9241 26.8738 41.8514C27.1037 41.7787 27.3166 41.6606 27.5 41.504C28.202 40.8859 28.7243 40.09 29.012 39.2H35.6C35.8883 40.1275 36.4459 40.9483 37.202 41.558C37.503 41.7681 37.861 41.8811 38.228 41.882C38.4984 41.8807 38.765 41.8186 39.0081 41.7002C39.2511 41.5818 39.4644 41.4101 39.632 41.198C39.9249 40.8306 40.0624 40.3632 40.0154 39.8957C39.9683 39.4282 39.7403 38.9976 39.38 38.696C39.0648 38.3403 38.903 37.8745 38.93 37.4C38.9192 36.9279 39.0789 36.4678 39.38 36.104C39.7564 35.8122 40.0018 35.3832 40.0625 34.9109C40.1232 34.4386 39.9943 33.9615 39.704 33.584Z" fill="black"/>
</svg>
