<svg width="64" height="64" viewBox="0 0 64 64" fill="none" xmlns="http://www.w3.org/2000/svg">
<path d="M26.3326 31.3463C26.1803 31.4974 26.0594 31.6771 25.9769 31.8751C25.8944 32.0731 25.8519 32.2855 25.8519 32.5001C25.8519 32.7146 25.8944 32.927 25.9769 33.125C26.0594 33.323 26.1803 33.5027 26.3326 33.6538C26.6371 33.9565 27.0489 34.1263 27.4782 34.1263C27.9075 34.1263 28.3194 33.9565 28.6239 33.6538C28.7762 33.5027 28.8971 33.323 28.9796 33.125C29.0621 32.927 29.1045 32.7146 29.1045 32.5001C29.1045 32.2855 29.0621 32.0731 28.9796 31.8751C28.8971 31.6771 28.7762 31.4974 28.6239 31.3463C28.3194 31.0436 27.9075 30.8738 27.4782 30.8738C27.0489 30.8738 26.6371 31.0436 26.3326 31.3463ZM30.3464 35.3763C30.0437 35.6808 29.8738 36.0926 29.8738 36.5219C29.8738 36.9512 30.0437 37.3631 30.3464 37.6676C30.4974 37.8199 30.6772 37.9408 30.8752 38.0232C31.0732 38.1057 31.2856 38.1482 31.5001 38.1482C31.7146 38.1482 31.927 38.1057 32.125 38.0232C32.3231 37.9408 32.5028 37.8199 32.6539 37.6676C32.9565 37.3631 33.1264 36.9512 33.1264 36.5219C33.1264 36.0926 32.9565 35.6808 32.6539 35.3763C32.5028 35.224 32.3231 35.1031 32.125 35.0206C31.927 34.9381 31.7146 34.8956 31.5001 34.8956C31.2856 34.8956 31.0732 34.9381 30.8752 35.0206C30.6772 35.1031 30.4974 35.224 30.3464 35.3763ZM44.9714 19.1263C43.2037 17.344 40.8168 16.3122 38.3074 16.2456C35.7981 16.179 33.3598 17.0828 31.5001 18.7688C29.649 17.1025 27.2304 16.2078 24.7405 16.2682C22.2506 16.3286 19.8782 17.3396 18.1101 19.0938C16.3535 20.8648 15.3425 23.2417 15.2851 25.7354C15.2276 28.2292 16.1282 30.6501 17.8014 32.5001C16.5504 33.8986 15.7295 35.6284 15.4373 37.4819C15.1451 39.3354 15.3939 41.2338 16.1539 42.9494C16.9139 44.665 18.1528 46.1248 19.722 47.1537C21.2911 48.1826 23.1238 48.7369 25.0001 48.75C27.4055 48.7526 29.7245 47.854 31.5001 46.2313C33.3521 47.9024 35.7742 48.8 38.268 48.7396C40.7617 48.6791 43.1375 47.6652 44.9064 45.9063C46.6607 44.1332 47.6688 41.7552 47.7232 39.2614C47.7776 36.7677 46.8742 34.348 45.1989 32.5001C46.8742 30.6521 47.7776 28.2324 47.7232 25.7387C47.6688 23.2449 46.6607 20.8669 44.9064 19.0938L44.9714 19.1263ZM42.5989 21.4013C43.7289 22.5638 44.3838 24.1067 44.4349 25.7271C44.486 27.3476 43.9297 28.9286 42.8751 30.1601L33.8401 21.1251C35.0823 20.0944 36.6585 19.5535 38.2718 19.6044C39.8851 19.6553 41.4241 20.2944 42.5989 21.4013ZM20.4014 43.5988C19.2713 42.4363 18.6164 40.8934 18.5653 39.273C18.5142 37.6525 19.0705 36.0715 20.1251 34.84L29.2251 43.9401C27.9692 44.9768 26.3755 45.5151 24.7482 45.4521C23.1208 45.3892 21.5735 44.7295 20.4014 43.5988ZM42.5989 43.5988C41.3651 44.7788 39.7236 45.4374 38.0164 45.4374C36.3091 45.4374 34.6677 44.7788 33.4339 43.5988L20.4339 30.5988C19.2232 29.3809 18.5437 27.7335 18.5437 26.0163C18.5437 24.2991 19.2232 22.6517 20.4339 21.4338C21.6517 20.2232 23.2992 19.5436 25.0164 19.5436C26.7336 19.5436 28.381 20.2232 29.5989 21.4338L42.5989 34.4338C43.8095 35.6517 44.489 37.2991 44.489 39.0163C44.489 40.7335 43.8095 42.3809 42.5989 43.5988ZM34.3764 31.3463C34.2241 31.4974 34.1032 31.6771 34.0207 31.8751C33.9382 32.0731 33.8957 32.2855 33.8957 32.5001C33.8957 32.7146 33.9382 32.927 34.0207 33.125C34.1032 33.323 34.2241 33.5027 34.3764 33.6538C34.6808 33.9565 35.0927 34.1263 35.522 34.1263C35.9513 34.1263 36.3631 33.9565 36.6676 33.6538C36.8199 33.5027 36.9408 33.323 37.0233 33.125C37.1058 32.927 37.1483 32.7146 37.1483 32.5001C37.1483 32.2855 37.1058 32.0731 37.0233 31.8751C36.9408 31.6771 36.8199 31.4974 36.6676 31.3463C36.3631 31.0436 35.9513 30.8738 35.522 30.8738C35.0927 30.8738 34.6808 31.0436 34.3764 31.3463ZM30.3464 27.3326C30.0437 27.637 29.8738 28.0489 29.8738 28.4782C29.8738 28.9075 30.0437 29.3193 30.3464 29.6238C30.4974 29.7761 30.6772 29.897 30.8752 29.9795C31.0732 30.062 31.2856 30.1045 31.5001 30.1045C31.7146 30.1045 31.927 30.062 32.125 29.9795C32.3231 29.897 32.5028 29.7761 32.6539 29.6238C32.9565 29.3193 33.1264 28.9075 33.1264 28.4782C33.1264 28.0489 32.9565 27.637 32.6539 27.3326C32.5028 27.1802 32.3231 27.0594 32.125 26.9769C31.927 26.8944 31.7146 26.8519 31.5001 26.8519C31.2856 26.8519 31.0732 26.8944 30.8752 26.9769C30.6772 27.0594 30.4974 27.1802 30.3464 27.3326Z" fill="#1B1B1B"/>
</svg>
