<svg width="64" height="64" viewBox="0 0 64 64" fill="none" xmlns="http://www.w3.org/2000/svg">
<path fill-rule="evenodd" clip-rule="evenodd" d="M31.9446 15C30.3034 15 27.5792 15.4556 25.3437 17.3796C25.2127 17.4924 25.011 17.597 24.3974 17.5178C23.8844 17.4516 23.3304 17.2961 22.5975 17.0903C22.3436 17.019 22.0681 16.9416 21.7654 16.8599C19.5412 16.2592 16.5413 15.6507 13.0152 17.1339C10.8209 18.0568 10.081 20.0806 10.0067 22.0371C9.93383 23.9573 10.4622 26.1299 11.1202 28.0747C11.7881 30.0487 12.6383 31.9263 13.3146 33.3004C13.6541 33.9902 13.9529 34.5594 14.1679 34.9579C14.2755 35.1573 14.3622 35.3144 14.4228 35.4228C14.4531 35.477 14.4769 35.5191 14.4934 35.5483L14.5128 35.5823L14.5183 35.5918L14.5199 35.5947L14.5205 35.5957C14.5206 35.5959 14.5207 35.596 14.6364 35.5295C14.6365 35.5296 14.6365 35.5297 14.6365 35.5298L14.5209 35.5964C14.6283 35.7829 14.7697 35.9376 14.9328 36.0572C15.5742 37.0744 16.6149 38.0158 18.0448 38.0158C19.6046 38.0158 20.7013 36.8955 21.3217 35.7787C21.9704 34.611 22.3247 33.0995 22.3247 31.5119C22.3247 29.9242 21.9704 28.4128 21.3217 27.2451C21.1861 27.0009 21.0277 26.7565 20.8466 26.5238C20.1996 25.6919 19.2635 25.0079 18.0448 25.0079C17.9754 25.0079 17.907 25.0102 17.8395 25.0145C17.7815 24.9703 17.7105 24.9021 17.6328 24.7981C17.4843 24.5995 17.3571 24.3288 17.2851 24.0342C17.2118 23.7347 17.2139 23.4875 17.2453 23.3369C17.251 23.3096 17.2566 23.2892 17.2614 23.2745C18.4451 22.5352 20.1526 22.5839 22.2911 23.5866C22.5985 23.7308 22.9149 23.8947 23.2399 24.0788C24.0499 24.5376 24.7226 25.7276 25.0988 27.3898C25.4648 29.0068 25.4335 30.5565 25.2888 31.165C25.0543 32.1518 24.8272 33.5932 24.77 35.0958C24.714 36.5693 24.8139 38.2633 25.3461 39.6629C25.7506 40.7265 26.2083 42.1721 26.5105 43.4965C26.6618 44.1594 26.7669 44.7615 26.812 45.2532C26.8344 45.4982 26.8401 45.6965 26.8337 45.8488C26.8273 45.9996 26.8107 46.0649 26.8093 46.0703C26.8092 46.0706 26.8092 46.0707 26.8093 46.0706C26.559 46.8603 26.9963 47.7034 27.7861 47.9536C28.5758 48.2039 29.4189 47.7665 29.6691 46.9768C29.8698 46.3434 29.8568 45.6045 29.7995 44.9795C29.738 44.3089 29.6036 43.5666 29.4354 42.8292C29.0985 41.3529 28.5978 39.7737 28.1502 38.5967C27.8305 37.7557 27.7174 36.5369 27.7679 35.2098C27.8172 33.9117 28.0161 32.6644 28.2075 31.8587C28.4889 30.6747 28.4576 28.6395 28.0248 26.7276C27.6023 24.8609 26.6775 22.578 24.7185 21.4684C24.3579 21.2642 23.9891 21.072 23.6145 20.8956C20.9626 19.647 18.0151 19.1877 15.5527 20.8066C14.8082 21.2961 14.4491 22.0487 14.3083 22.7255C14.1677 23.4008 14.2149 24.1088 14.3709 24.7468C14.5142 25.3327 14.7875 25.9899 15.2097 26.5669C15.0425 26.7867 14.8951 27.0159 14.7678 27.2451C14.6073 27.5339 14.4649 27.8438 14.3413 28.1707C14.2096 27.8224 14.0823 27.4689 13.962 27.1132C13.3414 25.2791 12.9526 23.5208 13.0046 22.151C13.0552 20.8175 13.4824 20.1919 14.1784 19.8992C16.7681 18.8099 18.9595 19.2096 20.9832 19.7561C21.1887 19.8116 21.4024 19.8719 21.621 19.9335L21.621 19.9335C22.3453 20.1377 23.1221 20.3567 23.8256 20.4663C23.8889 20.4762 23.9515 20.4851 24.0135 20.4931C25.0499 20.6269 26.2602 20.5489 27.3007 19.6534C28.8139 18.351 30.7457 18 31.9446 18C32.773 18 33.4446 17.3284 33.4446 16.5C33.4446 15.6716 32.773 15 31.9446 15ZM17.2744 23.2428C17.2743 23.2426 17.2733 23.2441 17.2717 23.2476C17.2729 23.2458 17.2736 23.2445 17.274 23.2437C17.2743 23.2431 17.2744 23.2428 17.2744 23.2428ZM16.7648 31.5119C16.7648 30.3359 17.0328 29.3454 17.3903 28.702C17.5679 28.3823 17.7424 28.1928 17.8713 28.0946C17.9331 28.0476 17.9778 28.0264 18.003 28.0172C18.0263 28.0086 18.0385 28.0079 18.0448 28.0079C18.0511 28.0079 18.0632 28.0086 18.0866 28.0172C18.1118 28.0264 18.1565 28.0476 18.2182 28.0946C18.3472 28.1928 18.5217 28.3823 18.6993 28.702C18.8843 29.0351 19.0454 29.4612 19.1577 29.9579C19.2624 30.4206 19.3247 30.9447 19.3247 31.5119C19.3247 32.6878 19.0567 33.6783 18.6993 34.3217C18.5217 34.6414 18.3472 34.8309 18.2182 34.9291C18.1565 34.9762 18.1118 34.9973 18.0866 35.0066C18.0632 35.0152 18.0511 35.0158 18.0448 35.0158C18.0385 35.0158 18.0263 35.0152 18.003 35.0066C17.9778 34.9973 17.9331 34.9762 17.8713 34.9291C17.7424 34.8309 17.5679 34.6414 17.3903 34.3217C17.3245 34.2033 17.2617 34.0732 17.2031 33.9323C16.9432 33.3075 16.7648 32.4714 16.7648 31.5119Z" fill="#1B1B1B"/>
<path fill-rule="evenodd" clip-rule="evenodd" d="M31.5156 15C33.1568 15 35.881 15.4556 38.1165 17.3796C38.2475 17.4924 38.4492 17.597 39.0628 17.5178C39.5758 17.4516 40.1298 17.2961 40.8627 17.0903C41.1166 17.019 41.3921 16.9416 41.6948 16.8599C43.919 16.2592 46.9189 15.6507 50.445 17.1339C52.6393 18.0568 53.3792 20.0806 53.4535 22.0371C53.5264 23.9573 52.998 26.1299 52.34 28.0747C51.6721 30.0487 50.8219 31.9263 50.1456 33.3004C49.8061 33.9902 49.5073 34.5594 49.2923 34.9579C49.1847 35.1573 49.098 35.3144 49.0374 35.4228C49.0071 35.477 48.9833 35.5191 48.9668 35.5483L48.9474 35.5823L48.9419 35.5918L48.9403 35.5947L48.9397 35.5957C48.9396 35.5959 48.9395 35.596 48.8238 35.5295C48.8237 35.5296 48.8237 35.5297 48.8237 35.5298L48.9393 35.5964C48.8319 35.7829 48.6905 35.9376 48.5274 36.0572C47.886 37.0744 46.8453 38.0158 45.4154 38.0158C43.8557 38.0158 42.7589 36.8955 42.1385 35.7787C41.4898 34.611 41.1355 33.0995 41.1355 31.5119C41.1355 29.9242 41.4898 28.4128 42.1385 27.2451C42.2741 27.0009 42.4325 26.7565 42.6136 26.5238C43.2606 25.6919 44.1967 25.0079 45.4154 25.0079C45.4848 25.0079 45.5532 25.0102 45.6207 25.0145C45.6787 24.9703 45.7497 24.9021 45.8274 24.7981C45.976 24.5995 46.1031 24.3288 46.1751 24.0342C46.2484 23.7347 46.2463 23.4875 46.2149 23.3369C46.2092 23.3096 46.2036 23.2892 46.1988 23.2745C45.0151 22.5352 43.3076 22.5839 41.1691 23.5866C40.8617 23.7308 40.5453 23.8947 40.2203 24.0788C39.4103 24.5376 38.7376 25.7276 38.3614 27.3898C37.9954 29.0068 38.0267 30.5565 38.1714 31.165C38.4059 32.1518 38.633 33.5932 38.6902 35.0958C38.7462 36.5693 38.6463 38.2633 38.1141 39.6629C37.7097 40.7265 37.2519 42.1721 36.9497 43.4965C36.7984 44.1594 36.6933 44.7615 36.6482 45.2532C36.6258 45.4982 36.6201 45.6965 36.6265 45.8488C36.6329 45.9996 36.6495 46.0649 36.6509 46.0703C36.651 46.0706 36.651 46.0707 36.651 46.0706C36.9012 46.8603 36.4639 47.7034 35.6741 47.9536C34.8844 48.2039 34.0413 47.7665 33.7911 46.9768C33.5904 46.3434 33.6034 45.6045 33.6607 44.9795C33.7222 44.3089 33.8566 43.5666 34.0249 42.8292C34.3617 41.3529 34.8624 39.7737 35.31 38.5967C35.6297 37.7557 35.7428 36.5369 35.6923 35.2098C35.643 33.9117 35.4441 32.6644 35.2527 31.8587C34.9713 30.6747 35.0026 28.6395 35.4354 26.7276C35.8579 24.8609 36.7827 22.578 38.7417 21.4684C39.1023 21.2642 39.4711 21.072 39.8457 20.8956C42.4976 19.647 45.4451 19.1877 47.9075 20.8066C48.652 21.2961 49.0111 22.0487 49.1519 22.7255C49.2925 23.4008 49.2453 24.1088 49.0893 24.7468C48.946 25.3327 48.6727 25.9899 48.2505 26.5669C48.4177 26.7867 48.5651 27.0159 48.6924 27.2451C48.8529 27.5339 48.9953 27.8438 49.1189 28.1707C49.2506 27.8224 49.3779 27.4689 49.4982 27.1132C50.1188 25.2791 50.5076 23.5208 50.4556 22.151C50.405 20.8175 49.9778 20.1919 49.2818 19.8992C46.6921 18.8099 44.5007 19.2096 42.477 19.7561C42.2715 19.8116 42.0578 19.8719 41.8392 19.9335L41.8392 19.9335C41.1149 20.1377 40.3381 20.3567 39.6346 20.4663C39.5713 20.4762 39.5087 20.4851 39.4467 20.4931C38.4103 20.6269 37.2 20.5489 36.1595 19.6534C34.6463 18.351 32.7145 18 31.5156 18C30.6872 18 30.0156 17.3284 30.0156 16.5C30.0156 15.6716 30.6872 15 31.5156 15ZM46.1858 23.2428C46.1859 23.2426 46.1869 23.2441 46.1885 23.2476C46.1873 23.2458 46.1866 23.2445 46.1862 23.2437C46.1859 23.2431 46.1858 23.2428 46.1858 23.2428ZM46.6954 31.5119C46.6954 30.3359 46.4274 29.3454 46.0699 28.702C45.8923 28.3823 45.7178 28.1928 45.5889 28.0946C45.5271 28.0476 45.4824 28.0264 45.4572 28.0172C45.4339 28.0086 45.4217 28.0079 45.4154 28.0079C45.4092 28.0079 45.397 28.0086 45.3736 28.0172C45.3484 28.0264 45.3038 28.0476 45.242 28.0946C45.113 28.1928 44.9385 28.3823 44.7609 28.702C44.5759 29.0351 44.4148 29.4612 44.3025 29.9579C44.1978 30.4206 44.1355 30.9447 44.1355 31.5119C44.1355 32.6878 44.4035 33.6783 44.7609 34.3217C44.9385 34.6414 45.113 34.8309 45.242 34.9291C45.3038 34.9762 45.3484 34.9973 45.3736 35.0066C45.397 35.0152 45.4092 35.0158 45.4154 35.0158C45.4217 35.0158 45.4339 35.0152 45.4572 35.0066C45.4824 34.9973 45.5271 34.9762 45.5889 34.9291C45.7178 34.8309 45.8923 34.6414 46.0699 34.3217C46.1357 34.2033 46.1985 34.0732 46.2571 33.9323C46.517 33.3075 46.6954 32.4714 46.6954 31.5119Z" fill="#1B1B1B"/>
</svg>
