<svg width="64" height="64" viewBox="0 0 64 64" fill="none" xmlns="http://www.w3.org/2000/svg">
<path d="M24.188 32.378C24.3562 32.5448 24.5557 32.6768 24.775 32.7664C24.9943 32.856 25.2291 32.9014 25.466 32.9C25.7029 32.9014 25.9377 32.856 26.157 32.7664C26.3763 32.6768 26.5758 32.5448 26.744 32.378L29.444 29.678C29.6127 29.5107 29.7466 29.3116 29.838 29.0922C29.9294 28.8729 29.9764 28.6376 29.9764 28.4C29.9764 28.1624 29.9294 27.9271 29.838 27.7078C29.7466 27.4884 29.6127 27.2893 29.444 27.122L26.744 24.422C26.4051 24.0831 25.9453 23.8926 25.466 23.8926C24.9867 23.8926 24.527 24.0831 24.188 24.422C23.8491 24.7609 23.6586 25.2207 23.6586 25.7C23.6586 26.1793 23.8491 26.639 24.188 26.978L25.628 28.4L24.188 29.822C24.0193 29.9893 23.8854 30.1884 23.794 30.4078C23.7026 30.6271 23.6556 30.8624 23.6556 31.1C23.6556 31.3376 23.7026 31.5729 23.794 31.7922C23.8854 32.0116 24.0193 32.2107 24.188 32.378ZM37.688 32.378C37.8562 32.5448 38.0557 32.6768 38.275 32.7664C38.4943 32.856 38.7291 32.9014 38.966 32.9C39.2029 32.9014 39.4377 32.856 39.657 32.7664C39.8763 32.6768 40.0758 32.5448 40.244 32.378C40.4127 32.2107 40.5466 32.0116 40.638 31.7922C40.7294 31.5729 40.7764 31.3376 40.7764 31.1C40.7764 30.8624 40.7294 30.6271 40.638 30.4078C40.5466 30.1884 40.4127 29.9893 40.244 29.822L38.822 28.4L40.244 26.978C40.4118 26.8102 40.545 26.6109 40.6358 26.3916C40.7266 26.1724 40.7734 25.9373 40.7734 25.7C40.7734 25.4627 40.7266 25.2276 40.6358 25.0083C40.545 24.7891 40.4118 24.5898 40.244 24.422C40.0762 24.2542 39.8769 24.121 39.6577 24.0302C39.4384 23.9394 39.2034 23.8926 38.966 23.8926C38.7287 23.8926 38.4936 23.9394 38.2744 24.0302C38.0551 24.121 37.8558 24.2542 37.688 24.422L34.988 27.122C34.8193 27.2893 34.6854 27.4884 34.594 27.7078C34.5026 27.9271 34.4556 28.1624 34.4556 28.4C34.4556 28.6376 34.5026 28.8729 34.594 29.0922C34.6854 29.3116 34.8193 29.5107 34.988 29.678L37.688 32.378ZM37.886 35.978C37.5744 35.7443 37.1955 35.618 36.806 35.618C36.4165 35.618 36.0376 35.7443 35.726 35.978L34.394 36.968L33.08 35.978C32.7684 35.7443 32.3895 35.618 32 35.618C31.6105 35.618 31.2316 35.7443 30.92 35.978L29.606 36.968L28.274 35.978C27.9624 35.7443 27.5835 35.618 27.194 35.618C26.8045 35.618 26.4256 35.7443 26.114 35.978L23.72 37.778C23.5309 37.9198 23.3716 38.0975 23.2512 38.3009C23.1307 38.5043 23.0515 38.7294 23.0181 38.9634C22.9506 39.436 23.0736 39.9161 23.36 40.298C23.6464 40.6799 24.0729 40.9324 24.5454 40.9999C25.018 41.0674 25.4981 40.9444 25.88 40.658L27.194 39.668L28.526 40.658C28.5942 40.7011 28.6666 40.7373 28.742 40.766C28.8665 40.8325 28.9999 40.8809 29.138 40.91H29.372H29.786H30.002C30.2145 40.8473 30.4152 40.75 30.596 40.622L31.91 39.632L33.224 40.622C33.4798 40.8111 33.7811 40.929 34.0973 40.9638C34.4135 40.9986 34.7332 40.949 35.024 40.82L35.204 40.73C35.2754 40.7049 35.3423 40.6684 35.402 40.622L36.734 39.632L38.048 40.622C38.3596 40.8557 38.7385 40.982 39.128 40.982C39.4074 40.982 39.6831 40.9169 39.933 40.792C40.1829 40.667 40.4003 40.4855 40.568 40.262C40.7098 40.0729 40.813 39.8577 40.8717 39.6287C40.9304 39.3997 40.9433 39.1614 40.9099 38.9274C40.8765 38.6934 40.7973 38.4683 40.6769 38.2649C40.5564 38.0615 40.3971 37.8838 40.208 37.742L37.886 35.978ZM32 14C28.4399 14 24.9598 15.0557 21.9997 17.0335C19.0397 19.0114 16.7326 21.8226 15.3702 25.1117C14.0078 28.4008 13.6513 32.02 14.3459 35.5116C15.0404 39.0033 16.7547 42.2106 19.2721 44.7279C21.7894 47.2453 24.9967 48.9596 28.4884 49.6541C31.98 50.3487 35.5992 49.9922 38.8883 48.6298C42.1774 47.2674 44.9886 44.9603 46.9665 42.0003C48.9443 39.0402 50 35.5601 50 32C50 29.6362 49.5344 27.2956 48.6298 25.1117C47.7253 22.9278 46.3994 20.9435 44.7279 19.2721C43.0565 17.6006 41.0722 16.2748 38.8883 15.3702C36.7044 14.4656 34.3638 14 32 14ZM32 46.4C29.152 46.4 26.3679 45.5554 23.9998 43.9732C21.6317 42.3909 19.786 40.1419 18.6961 37.5106C17.6062 34.8794 17.3211 31.984 17.8767 29.1907C18.4323 26.3974 19.8038 23.8315 21.8177 21.8177C23.8315 19.8038 26.3974 18.4323 29.1907 17.8767C31.984 17.3211 34.8794 17.6062 37.5106 18.6961C40.1419 19.786 42.3909 21.6317 43.9732 23.9998C45.5555 26.3679 46.4 29.1519 46.4 32C46.4 35.8191 44.8829 39.4818 42.1823 42.1823C39.4818 44.8829 35.8191 46.4 32 46.4Z" fill="#1B1B1B"/>
</svg>
